<svg width="684" height="597" viewBox="0 0 684 597" fill="none" xmlns="http://www.w3.org/2000/svg">
<g opacity="0.8" filter="url(#filter0_f_145_1139)">
<path d="M521.723 235.131C561.373 264.395 579.775 306.735 562.826 329.701C545.876 352.667 494.769 319.658 450.996 321.177C325.498 325.532 132.788 456.563 149.738 433.597C166.687 410.631 443.765 166.022 521.723 235.131Z" fill="#F03800"/>
</g>
<g opacity="0.8" filter="url(#filter1_f_145_1139)">
<path d="M226.819 93.4661C674.289 55.5976 584.52 287.67 591.907 315.241C599.295 342.812 594.116 206.668 501.795 232.73C376.565 268.082 259.164 363.766 251.777 336.196C244.389 308.625 401.743 222.009 226.819 93.4661Z" fill="#3467BD"/>
</g>
<g opacity="0.1" filter="url(#filter2_f_145_1139)">
<ellipse cx="348.356" cy="293.805" rx="132.298" ry="57.7786" transform="rotate(-27.2825 348.356 293.805)" fill="#D9D9D9"/>
</g>
<g filter="url(#filter3_f_145_1139)">
<path d="M272.538 248.191C293.078 225.442 294.845 98.6658 89 94.2485" stroke="#3467BD" stroke-width="7.06765"/>
</g>
<defs>
<filter id="filter0_f_145_1139" x="60.3453" y="134.527" width="597.131" height="390.114" filterUnits="userSpaceOnUse" color-interpolation-filters="sRGB">
<feFlood flood-opacity="0" result="BackgroundImageFix"/>
<feBlend mode="normal" in="SourceGraphic" in2="BackgroundImageFix" result="shape"/>
<feGaussianBlur stdDeviation="44.1728" result="effect1_foregroundBlur_145_1139"/>
</filter>
<filter id="filter1_f_145_1139" x="138.474" y="0.955193" width="544.571" height="428.507" filterUnits="userSpaceOnUse" color-interpolation-filters="sRGB">
<feFlood flood-opacity="0" result="BackgroundImageFix"/>
<feBlend mode="normal" in="SourceGraphic" in2="BackgroundImageFix" result="shape"/>
<feGaussianBlur stdDeviation="44.1728" result="effect1_foregroundBlur_145_1139"/>
</filter>
<filter id="filter2_f_145_1139" x="139.458" y="125.995" width="417.796" height="335.621" filterUnits="userSpaceOnUse" color-interpolation-filters="sRGB">
<feFlood flood-opacity="0" result="BackgroundImageFix"/>
<feBlend mode="normal" in="SourceGraphic" in2="BackgroundImageFix" result="shape"/>
<feGaussianBlur stdDeviation="44.1728" result="effect1_foregroundBlur_145_1139"/>
</filter>
<filter id="filter3_f_145_1139" x="0.578484" y="2.36974" width="372.778" height="336.535" filterUnits="userSpaceOnUse" color-interpolation-filters="sRGB">
<feFlood flood-opacity="0" result="BackgroundImageFix"/>
<feBlend mode="normal" in="SourceGraphic" in2="BackgroundImageFix" result="shape"/>
<feGaussianBlur stdDeviation="44.1728" result="effect1_foregroundBlur_145_1139"/>
</filter>
</defs>
</svg>
