<svg width="289" height="289" viewBox="0 0 289 289" fill="none" xmlns="http://www.w3.org/2000/svg">
<path d="M138.359 256.166C133.471 252.124 127.945 249.155 121.927 247.343L121.815 247.309C121.617 247.247 121.419 247.191 121.216 247.134L121.149 247.118C120.866 247.039 120.539 246.948 120.206 246.858C120.008 246.813 119.816 246.762 119.625 246.7C97.4697 240.451 79.6161 232.605 77.6574 231.731C65.3354 226.871 54.8197 218.534 47.2334 207.611C39.4157 196.356 35.2839 183.125 35.2839 169.353C35.2839 156.681 38.8343 144.348 45.557 133.679L45.6812 133.482L45.8166 133.29C46.2174 132.72 46.5899 132.155 46.923 131.613C50.9024 125.258 52.9965 117.942 52.9965 110.435C52.9965 101.602 50.1742 93.2363 44.8345 86.2315L39.5964 79.3621L82.3424 36.616L89.1666 41.5832C96.0191 46.5673 104.136 49.2033 112.637 49.2033C122.012 49.2033 131.128 45.8844 138.302 39.8673L144.658 34.5332L151.008 39.8729C158.171 45.8956 167.281 49.209 176.663 49.209C185.163 49.209 193.269 46.5786 200.104 41.6114L206.928 36.6499L249.68 79.4016L244.448 86.271C239.119 93.2645 236.303 101.624 236.303 110.441C236.303 117.909 238.374 125.184 242.297 131.484C242.788 132.195 243.257 132.912 243.697 133.617C250.448 144.302 254.021 156.658 254.021 169.358C254.021 183.131 249.889 196.362 242.071 207.617C234.485 218.539 223.975 226.871 211.653 231.736C209.734 232.594 191.829 240.468 169.607 246.728C169.426 246.779 169.251 246.824 169.071 246.869C168.822 246.931 168.585 246.999 168.342 247.067C168.342 247.067 168.151 247.118 168.128 247.123L167.902 247.23L167.168 247.411C161.23 249.229 155.778 252.175 150.946 256.166L144.652 261.376L138.359 256.166Z" fill="#14161F"/>
<path d="M144.658 47.4363C153.317 54.7121 164.482 59.0866 176.668 59.0866C187.602 59.0866 197.705 55.57 205.918 49.5981L236.596 80.2761C230.218 88.647 226.43 99.1006 226.43 110.435C226.43 120.16 229.219 129.237 234.045 136.908C234.491 137.551 234.92 138.2 235.332 138.861C240.914 147.683 244.143 158.142 244.143 169.352C244.143 193.607 229.1 214.334 207.786 222.637L207.747 222.654C207.747 222.654 189.498 230.855 166.898 237.222C166.858 237.234 166.818 237.245 166.785 237.251C166.401 237.347 166.028 237.448 165.65 237.555C165.289 237.651 164.928 237.764 164.566 237.871C164.555 237.877 164.544 237.877 164.532 237.883C157.166 240.101 150.432 243.77 144.652 248.551C138.872 243.77 132.138 240.101 124.772 237.883C124.485 237.792 124.191 237.708 123.897 237.623C123.44 237.493 122.983 237.369 122.52 237.251C122.503 237.251 122.481 237.245 122.458 237.234C99.8348 230.867 81.5578 222.654 81.5578 222.654L81.5183 222.637C60.2046 214.334 45.1619 193.607 45.1619 169.352C45.1619 158.176 48.368 147.751 53.9166 138.945C54.402 138.251 54.8705 137.546 55.3164 136.829C60.1086 129.175 62.8801 120.132 62.8801 110.435C62.8801 99.0837 59.0813 88.6188 52.6917 80.2423L83.3584 49.5755C91.5825 55.5587 101.698 59.0866 112.642 59.0866C124.834 59.0866 135.999 54.7064 144.658 47.4363ZM144.658 21.6351L131.952 32.3033C126.477 36.8979 119.8 39.3251 112.642 39.3251C106.241 39.3251 100.134 37.3438 94.9805 33.5959L81.3264 23.6615L69.3882 35.5997L38.7215 66.2664L26.5067 78.4812L36.983 92.2143C41.0019 97.4807 43.1242 103.78 43.1242 110.424C43.1242 116.074 41.5494 121.577 38.5691 126.336L38.5521 126.358L38.5352 126.381C38.2925 126.77 38.0159 127.188 37.7224 127.611L37.4515 128.001L37.1975 128.401C29.4814 140.65 25.4004 154.807 25.4004 169.341C25.4004 185.135 30.1418 200.313 39.1166 213.233C47.781 225.707 59.7756 235.241 73.8361 240.829C76.7374 242.111 94.8056 249.951 116.96 256.199C117.203 256.267 117.446 256.335 117.688 256.397C117.948 256.465 118.208 256.532 118.462 256.606C118.592 256.645 118.721 256.679 118.851 256.719L118.953 256.747L119.071 256.781C123.824 258.209 128.193 260.557 132.054 263.757L144.647 274.171L157.24 263.757C161.106 260.562 165.475 258.214 170.222 256.781L170.77 256.617L170.871 256.589L171.029 256.544C171.17 256.504 171.306 256.465 171.447 256.431C171.718 256.363 171.989 256.295 172.265 256.216C194.448 249.968 212.534 242.116 215.452 240.829C229.512 235.241 241.507 225.702 250.171 213.227C259.146 200.307 263.887 185.129 263.887 169.336C263.887 154.773 259.79 140.594 252.045 128.328C251.582 127.583 251.086 126.827 250.572 126.076C247.693 121.38 246.175 115.978 246.175 110.418C246.175 103.78 248.292 97.492 252.299 92.2312L262.764 78.4981L250.555 66.289L219.877 35.611L207.939 23.6728L194.285 33.6015C189.148 37.3382 183.052 39.3138 176.651 39.3138C169.488 39.3138 162.817 36.8866 157.353 32.292L144.647 21.6182L144.658 21.6351Z" fill="#E8E1CC"/>
<path d="M144.658 47.4362C153.317 54.712 164.482 59.0865 176.668 59.0865C187.602 59.0865 197.705 55.57 205.918 49.5981L236.596 80.2761C230.218 88.647 226.43 99.1006 226.43 110.435C226.43 120.16 229.219 129.237 234.045 136.908C234.491 137.551 234.92 138.2 235.332 138.861C240.914 147.683 244.143 158.142 244.143 169.352C244.143 193.607 229.1 214.334 207.786 222.637L207.747 222.654C207.747 222.654 189.498 230.855 166.897 237.222C166.858 237.234 166.818 237.245 166.785 237.251C166.401 237.346 166.028 237.448 165.65 237.555C165.289 237.651 164.928 237.764 164.566 237.871C164.555 237.877 164.544 237.877 164.532 237.883C157.166 240.101 150.432 243.77 144.652 248.551C138.872 243.77 132.138 240.101 124.772 237.883C124.484 237.792 124.191 237.708 123.897 237.623C123.44 237.493 122.983 237.369 122.52 237.251C122.503 237.251 122.481 237.245 122.458 237.234C99.8348 230.867 81.5578 222.654 81.5578 222.654L81.5183 222.637C60.2045 214.334 45.1619 193.607 45.1619 169.352C45.1619 158.176 48.368 147.751 53.9165 138.945C54.402 138.251 54.8705 137.546 55.3164 136.829C60.1086 129.175 62.88 120.132 62.88 110.435C62.88 99.0837 59.0813 88.6187 52.6917 80.2422L83.3584 49.5755C91.5825 55.5587 101.697 59.0865 112.642 59.0865C124.834 59.0865 135.999 54.7064 144.658 47.4362ZM144.658 29.0068L135.582 36.627C129.169 42.0118 121.024 44.9752 112.642 44.9752C105.039 44.9752 97.7858 42.6214 91.6615 38.1623L81.9078 31.0671L73.3789 39.596L42.7121 70.2627L33.9857 78.9892L41.4703 88.7994C46.2456 95.0591 48.7687 102.538 48.7687 110.435C48.7687 117.146 46.8947 123.683 43.3556 129.338L43.3443 129.355L43.333 129.372C43.0395 129.846 42.7065 130.349 42.3509 130.857L42.159 131.133L41.9783 131.421C34.8324 142.767 31.0505 155.885 31.0505 169.352C31.0505 183.994 35.442 198.055 43.7564 210.027C51.8055 221.615 62.9534 230.466 76.0205 235.636C78.4251 236.703 96.3408 244.526 118.456 250.769C118.682 250.837 118.913 250.899 119.145 250.955C119.438 251.029 119.726 251.108 120.014 251.193C120.195 251.243 120.37 251.294 120.545 251.351L120.624 251.373L120.703 251.396C126.178 253.044 131.207 255.748 135.655 259.428L144.647 266.867L153.638 259.428C158.086 255.748 163.116 253.05 168.591 251.396L169.206 251.209C169.206 251.209 169.246 251.198 169.263 251.193L169.375 251.164L169.483 251.13C169.675 251.074 169.861 251.023 170.058 250.972C170.324 250.91 170.549 250.848 170.724 250.797C192.868 244.555 210.823 236.714 213.262 235.636C226.329 230.46 237.482 221.61 245.531 210.021C253.846 198.049 258.237 183.989 258.237 169.347C258.237 155.845 254.444 142.705 247.259 131.342C246.807 130.625 246.327 129.892 245.831 129.163C242.359 123.553 240.525 117.078 240.525 110.435C240.525 102.549 243.042 95.0761 247.806 88.8276L255.28 79.0174L246.559 70.2966L215.881 39.6186L207.357 31.0953L197.604 38.1848C191.496 42.6271 184.249 44.9752 176.651 44.9752C168.263 44.9752 160.124 42.0118 153.717 36.6326L144.641 29.0068H144.658Z" fill="#14161F"/>
<path d="M138.508 126.215L130.004 199.841H106.084C103.901 188.532 101.976 175.678 100.308 161.277C99.5505 167.432 97.7769 180.286 94.9877 199.841H71.2038L62.6543 126.215H81.254L83.2094 151.909L85.2104 176.694C85.9077 163.869 87.6661 147.043 90.4856 126.215H110.404C110.677 128.368 111.374 136.462 112.496 150.499L114.588 178.467C115.649 160.671 117.423 143.254 119.909 126.215H138.508ZM174.48 126.215L185.439 199.841H165.839L164.884 186.607H158.017L156.88 199.841H137.053L146.785 126.215H174.48ZM164.339 173.556C163.368 165.218 162.398 154.926 161.428 142.678C159.488 156.745 158.275 167.037 157.79 173.556H164.339ZM223.867 126.215L209.905 173.192V199.841H192.17V173.192L178.709 126.215H196.308C199.067 140.555 200.613 150.211 200.947 155.183C202.008 147.331 203.781 137.675 206.267 126.215H223.867Z" fill="#E8E1CC"/>
<path d="M138.508 126.215L139.349 126.312C139.377 126.073 139.301 125.832 139.14 125.652C138.98 125.472 138.75 125.369 138.508 125.369V126.215ZM130.004 199.841V200.688C130.434 200.688 130.796 200.365 130.845 199.938L130.004 199.841ZM106.084 199.841L105.253 200.001C105.329 200.4 105.678 200.688 106.084 200.688V199.841ZM100.308 161.277L101.149 161.18C101.1 160.754 100.74 160.432 100.311 160.431C99.8827 160.429 99.5205 160.748 99.4681 161.174L100.308 161.277ZM94.9877 199.841V200.688C95.4091 200.688 95.7664 200.378 95.8259 199.96L94.9877 199.841ZM71.2038 199.841L70.3627 199.938C70.4123 200.365 70.774 200.688 71.2038 200.688V199.841ZM62.6543 126.215V125.369C62.4127 125.369 62.1827 125.472 62.022 125.652C61.8614 125.833 61.7854 126.073 61.8133 126.313L62.6543 126.215ZM81.254 126.215L82.0982 126.151C82.0646 125.71 81.6966 125.369 81.254 125.369V126.215ZM83.2094 151.909L82.3652 151.973L82.3655 151.977L83.2094 151.909ZM85.2104 176.694L84.3664 176.762C84.4023 177.206 84.7761 177.546 85.2215 177.54C85.6669 177.534 86.0316 177.184 86.0558 176.74L85.2104 176.694ZM90.4856 126.215V125.369C90.0619 125.369 89.7034 125.682 89.6466 126.102L90.4856 126.215ZM110.404 126.215L111.244 126.109C111.19 125.686 110.83 125.369 110.404 125.369V126.215ZM112.496 150.499L113.34 150.436L113.34 150.432L112.496 150.499ZM114.588 178.467L113.744 178.53C113.777 178.975 114.149 179.317 114.594 179.314C115.04 179.31 115.407 178.962 115.433 178.518L114.588 178.467ZM119.909 126.215V125.369C119.488 125.369 119.131 125.677 119.071 126.093L119.909 126.215ZM137.667 126.118L129.163 199.744L130.845 199.938L139.349 126.312L137.667 126.118ZM130.004 198.994H106.084V200.688H130.004V198.994ZM106.915 199.68C104.737 188.397 102.815 175.565 101.149 161.18L99.4673 161.375C101.137 175.791 103.065 188.668 105.253 200.001L106.915 199.68ZM99.4681 161.174C98.7113 167.319 96.9389 180.165 94.1495 199.721L95.8259 199.96C98.6148 180.407 100.39 167.545 101.149 161.381L99.4681 161.174ZM94.9877 198.994H71.2038V200.688H94.9877V198.994ZM72.0448 199.743L63.4953 126.118L61.8133 126.313L70.3627 199.938L72.0448 199.743ZM62.6543 127.062H81.254V125.369H62.6543V127.062ZM80.4097 126.279L82.3652 151.973L84.0537 151.845L82.0982 126.151L80.4097 126.279ZM82.3655 151.977L84.3664 176.762L86.0543 176.625L84.0534 151.841L82.3655 151.977ZM86.0558 176.74C86.7514 163.948 88.5065 147.147 91.3246 126.329L89.6466 126.102C86.8257 146.94 85.064 163.791 84.3649 176.648L86.0558 176.74ZM90.4856 127.062H110.404V125.369H90.4856V127.062ZM109.564 126.322C109.834 128.449 110.529 136.517 111.652 150.567L113.34 150.432C112.219 136.408 111.52 128.286 111.244 126.109L109.564 126.322ZM111.652 150.563L113.744 178.53L115.432 178.404L113.34 150.436L111.652 150.563ZM115.433 178.518C116.493 160.744 118.264 143.351 120.746 126.337L119.071 126.093C116.581 143.156 114.805 160.597 113.743 178.417L115.433 178.518ZM119.909 127.062H138.508V125.369H119.909V127.062ZM174.48 126.215L175.317 126.091C175.255 125.676 174.899 125.369 174.48 125.369V126.215ZM185.439 199.841V200.688C185.686 200.688 185.92 200.58 186.081 200.394C186.241 200.207 186.313 199.96 186.277 199.716L185.439 199.841ZM165.839 199.841L164.995 199.902C165.027 200.345 165.395 200.688 165.839 200.688V199.841ZM164.884 186.607L165.729 186.546C165.697 186.104 165.328 185.761 164.884 185.761V186.607ZM158.017 186.607V185.761C157.578 185.761 157.211 186.097 157.174 186.535L158.017 186.607ZM156.88 199.841V200.688C157.32 200.688 157.686 200.351 157.724 199.913L156.88 199.841ZM137.053 199.841L136.214 199.73C136.182 199.972 136.255 200.215 136.416 200.399C136.577 200.582 136.809 200.688 137.053 200.688V199.841ZM146.785 126.215V125.369C146.36 125.369 146.001 125.683 145.945 126.104L146.785 126.215ZM164.339 173.556V174.402C164.58 174.402 164.81 174.299 164.971 174.119C165.132 173.938 165.207 173.698 165.18 173.458L164.339 173.556ZM161.428 142.678L162.272 142.611C162.238 142.18 161.885 141.844 161.453 141.831C161.021 141.819 160.648 142.134 160.589 142.562L161.428 142.678ZM157.79 173.556L156.946 173.493C156.928 173.728 157.009 173.959 157.169 174.132C157.33 174.304 157.555 174.402 157.79 174.402V173.556ZM173.642 126.34L184.602 199.965L186.277 199.716L175.317 126.091L173.642 126.34ZM185.439 198.994H165.839V200.688H185.439V198.994ZM166.684 199.78L165.729 186.546L164.04 186.668L164.995 199.902L166.684 199.78ZM164.884 185.761H158.017V187.454H164.884V185.761ZM157.174 186.535L156.037 199.768L157.724 199.913L158.861 186.68L157.174 186.535ZM156.88 198.994H137.053V200.688H156.88V198.994ZM137.892 199.952L147.624 126.326L145.945 126.104L136.214 199.73L137.892 199.952ZM146.785 127.062H174.48V125.369H146.785V127.062ZM165.18 173.458C164.211 165.134 163.242 154.853 162.272 142.611L160.584 142.744C161.555 154.999 162.526 165.302 163.498 173.654L165.18 173.458ZM160.589 142.562C158.649 156.631 157.433 166.946 156.946 173.493L158.634 173.619C159.117 167.129 160.327 156.858 162.267 142.793L160.589 142.562ZM157.79 174.402H164.339V172.709H157.79V174.402ZM223.867 126.215L224.678 126.456C224.754 126.2 224.705 125.923 224.545 125.709C224.385 125.495 224.134 125.369 223.867 125.369V126.215ZM209.905 173.192L209.094 172.951C209.071 173.029 209.059 173.11 209.059 173.192H209.905ZM209.905 199.841V200.688C210.373 200.688 210.752 200.308 210.752 199.841H209.905ZM192.17 199.841H191.323C191.323 200.308 191.702 200.688 192.17 200.688V199.841ZM192.17 173.192H193.017C193.017 173.113 193.005 173.035 192.984 172.959L192.17 173.192ZM178.709 126.215V125.369C178.443 125.369 178.193 125.493 178.033 125.706C177.873 125.918 177.822 126.193 177.895 126.448L178.709 126.215ZM196.308 126.215L197.14 126.055C197.063 125.657 196.714 125.369 196.308 125.369V126.215ZM200.947 155.183L200.102 155.24C200.131 155.674 200.484 156.015 200.918 156.03C201.353 156.044 201.728 155.728 201.786 155.297L200.947 155.183ZM206.267 126.215V125.369C205.869 125.369 205.524 125.646 205.44 126.036L206.267 126.215ZM223.055 125.974L209.094 172.951L210.717 173.433L224.678 126.456L223.055 125.974ZM209.059 173.192V199.841H210.752V173.192H209.059ZM209.905 198.994H192.17V200.688H209.905V198.994ZM193.017 199.841V173.192H191.323V199.841H193.017ZM192.984 172.959L179.523 125.982L177.895 126.448L191.356 173.425L192.984 172.959ZM178.709 127.062H196.308V125.369H178.709V127.062ZM195.477 126.375C198.237 140.723 199.772 150.328 200.102 155.24L201.791 155.127C201.454 150.094 199.897 140.388 197.14 126.055L195.477 126.375ZM201.786 155.297C202.843 147.475 204.612 137.842 207.095 126.395L205.44 126.036C202.951 137.508 201.173 147.188 200.108 155.07L201.786 155.297ZM206.267 127.062H223.867V125.369H206.267V127.062Z" fill="#E8E1CC"/>
<path d="M141.882 209.866V236.639H135.201V222.285C135.201 220.212 135.151 218.966 135.052 218.548C134.953 218.129 134.677 217.814 134.225 217.605C133.784 217.384 132.792 217.274 131.249 217.274H130.587V214.149C133.817 213.454 136.27 212.027 137.946 209.866H141.882ZM156.812 209.866V236.639H150.132V222.285C150.132 220.212 150.082 218.966 149.983 218.548C149.883 218.129 149.608 217.814 149.156 217.605C148.715 217.384 147.723 217.274 146.179 217.274H145.518V214.149C148.748 213.454 151.201 212.027 152.877 209.866H156.812Z" fill="#E8E1CC"/>
<path d="M141.882 209.866H142.728C142.728 209.398 142.349 209.019 141.882 209.019V209.866ZM141.882 236.639V237.485C142.349 237.485 142.728 237.106 142.728 236.639H141.882ZM135.201 236.639H134.354C134.354 237.106 134.733 237.485 135.201 237.485V236.639ZM134.225 217.605L133.847 218.362C133.854 218.366 133.862 218.37 133.869 218.373L134.225 217.605ZM130.587 217.274H129.74C129.74 217.742 130.12 218.121 130.587 218.121V217.274ZM130.587 214.149L130.409 213.321C130.019 213.405 129.74 213.75 129.74 214.149H130.587ZM137.946 209.866V209.019C137.684 209.019 137.437 209.14 137.277 209.347L137.946 209.866ZM141.035 209.866V236.639H142.728V209.866H141.035ZM141.882 235.792H135.201V237.485H141.882V235.792ZM136.048 236.639V222.285H134.354V236.639H136.048ZM136.048 222.285C136.048 221.244 136.035 220.401 136.01 219.762C135.985 219.151 135.947 218.654 135.876 218.352L134.228 218.743C134.256 218.86 134.292 219.195 134.318 219.83C134.342 220.436 134.354 221.253 134.354 222.285H136.048ZM135.876 218.352C135.707 217.639 135.227 217.136 134.581 216.837L133.869 218.373C134.127 218.493 134.199 218.618 134.228 218.743L135.876 218.352ZM134.604 216.848C134.243 216.667 133.759 216.573 133.244 216.515C132.705 216.455 132.037 216.428 131.249 216.428V218.121C132.004 218.121 132.604 218.148 133.057 218.198C133.534 218.251 133.767 218.322 133.847 218.362L134.604 216.848ZM131.249 216.428H130.587V218.121H131.249V216.428ZM131.434 217.274V214.149H129.74V217.274H131.434ZM130.765 214.977C134.148 214.249 136.793 212.734 138.615 210.385L137.277 209.347C135.747 211.319 133.487 212.659 130.409 213.321L130.765 214.977ZM137.946 210.712H141.882V209.019H137.946V210.712ZM156.812 209.866H157.659C157.659 209.398 157.28 209.019 156.812 209.019V209.866ZM156.812 236.639V237.485C157.28 237.485 157.659 237.106 157.659 236.639H156.812ZM150.132 236.639H149.285C149.285 237.106 149.664 237.485 150.132 237.485V236.639ZM149.156 217.605L148.777 218.362C148.785 218.366 148.792 218.37 148.8 218.373L149.156 217.605ZM145.518 217.274H144.671C144.671 217.742 145.05 218.121 145.518 218.121V217.274ZM145.518 214.149L145.34 213.321C144.95 213.405 144.671 213.75 144.671 214.149H145.518ZM152.877 209.866V209.019C152.615 209.019 152.368 209.14 152.208 209.347L152.877 209.866ZM155.966 209.866V236.639H157.659V209.866H155.966ZM156.812 235.792H150.132V237.485H156.812V235.792ZM150.978 236.639V222.285H149.285V236.639H150.978ZM150.978 222.285C150.978 221.244 150.966 220.401 150.94 219.762C150.916 219.151 150.878 218.654 150.807 218.352L149.159 218.743C149.187 218.86 149.223 219.195 149.248 219.83C149.272 220.436 149.285 221.253 149.285 222.285H150.978ZM150.807 218.352C150.638 217.639 150.158 217.136 149.512 216.837L148.8 218.373C149.058 218.493 149.129 218.618 149.159 218.743L150.807 218.352ZM149.535 216.848C149.173 216.667 148.689 216.573 148.174 216.515C147.635 216.455 146.967 216.428 146.179 216.428V218.121C146.935 218.121 147.534 218.148 147.987 218.198C148.465 218.251 148.697 218.322 148.777 218.362L149.535 216.848ZM146.179 216.428H145.518V218.121H146.179V216.428ZM146.364 217.274V214.149H144.671V217.274H146.364ZM145.696 214.977C149.079 214.249 151.724 212.734 153.546 210.385L152.208 209.347C150.678 211.319 148.417 212.659 145.34 213.321L145.696 214.977ZM152.877 210.712H156.812V209.019H152.877V210.712Z" fill="#E8E1CC"/>
<path d="M226.278 110.435C226.278 110.633 226.278 110.825 226.284 111.022C202.785 107.111 175.172 104.853 145.629 104.853C116.085 104.853 86.7 107.252 62.722 111.406C62.722 111.084 62.7277 110.757 62.7277 110.435C62.7277 99.084 58.9289 88.619 52.5393 80.2425L83.206 49.5758C91.4301 55.559 101.545 59.0868 112.49 59.0868C124.682 59.0868 135.847 54.7067 144.506 47.4365C153.164 54.7123 164.329 59.0868 176.516 59.0868C187.449 59.0868 197.553 55.5703 205.766 49.5984L236.444 80.2764C230.065 88.6472 226.278 99.1009 226.278 110.435Z" fill="#E8E1CC"/>
<path d="M90.8741 70.5254L91.4065 96.1233L83.2191 97.2419C81.9432 93.4734 80.6831 89.1636 79.4389 84.3126C79.4673 86.4546 79.4614 90.9373 79.4212 97.7608L71.2806 98.873L64.9113 74.0727L71.2775 73.2029L73.1483 81.9058L74.9922 90.2953C74.6312 85.8733 74.4462 80.0319 74.4372 72.7712L81.2548 71.8397C81.4488 72.5637 82.0661 75.3017 83.1064 80.0537L85.1303 89.5285C84.6613 83.3877 84.4538 77.3433 84.5079 71.3952L90.8741 70.5254Z" fill="#14161F"/>
<path d="M92.8037 70.5136L103.789 69.5351L104.24 74.605L99.843 74.9967L100.271 79.8006L104.386 79.4341L104.816 84.2536L100.7 84.6202L101.196 90.1908L106.032 89.7602L106.483 94.8301L95.0602 95.8476L92.8037 70.5136Z" fill="#14161F"/>
<path d="M106.446 69.3104L113.033 68.9363C115.114 68.8182 116.697 68.8909 117.782 69.1545C118.877 69.4175 119.783 70.027 120.498 70.9829C121.212 71.9284 121.632 73.4991 121.757 75.6949C121.841 77.1797 121.665 78.2283 121.227 78.8405C120.801 79.4522 119.911 79.9538 118.559 80.3453C120.105 80.6037 121.173 81.12 121.763 81.8942C122.352 82.6581 122.693 83.866 122.787 85.5181L122.92 87.8708C123.018 89.5857 122.891 90.8674 122.541 91.716C122.201 92.5641 121.611 93.164 120.77 93.516C119.93 93.8679 118.182 94.1192 115.526 94.2701L107.888 94.7038L106.446 69.3104ZM113.296 73.2801L113.616 78.9266C113.898 78.9001 114.117 78.8824 114.274 78.8735C114.923 78.8366 115.327 78.6563 115.487 78.3326C115.646 77.9983 115.683 77.0783 115.597 75.5726C115.552 74.7779 115.448 74.2279 115.283 73.9225C115.119 73.6067 114.914 73.4138 114.668 73.3438C114.434 73.2732 113.976 73.252 113.296 73.2801ZM113.841 82.8791L114.244 89.9842C115.173 89.9 115.756 89.7201 115.992 89.4444C116.238 89.1681 116.332 88.5176 116.274 87.4929L116.14 85.1245C116.078 84.0371 115.926 83.3849 115.683 83.1679C115.439 82.9509 114.826 82.8546 113.841 82.8791Z" fill="#14161F"/>
<path d="M144.187 75.6802L138.045 75.7628L138.019 73.8778C138.008 72.9981 137.921 72.4389 137.761 72.2001C137.601 71.9614 137.337 71.8445 136.971 71.8494C136.573 71.8547 136.271 72.0211 136.066 72.3486C135.872 72.6759 135.779 73.1694 135.788 73.8292C135.799 74.6775 135.923 75.3147 136.159 75.741C136.385 76.1674 137.015 76.6774 138.049 77.271C141.015 78.9803 142.888 80.3901 143.668 81.5004C144.447 82.6106 144.854 84.412 144.887 86.9044C144.912 88.7161 144.715 90.0542 144.297 90.9187C143.89 91.7831 143.083 92.5166 141.876 93.1194C140.669 93.7117 139.259 94.0187 137.646 94.0404C135.876 94.0642 134.359 93.7494 133.093 93.096C131.838 92.4426 131.009 91.6001 130.608 90.5685C130.207 89.5369 129.993 88.0682 129.967 86.1622L129.945 84.4971L136.087 84.4146L136.129 87.5092C136.141 88.4621 136.234 89.0736 136.405 89.3437C136.586 89.6136 136.897 89.7455 137.337 89.7396C137.777 89.7337 138.099 89.5566 138.304 89.2082C138.519 88.8596 138.622 88.345 138.613 87.6643C138.593 86.1668 138.376 85.1903 137.961 84.7351C137.536 84.2799 136.494 83.5241 134.835 82.4675C133.177 81.4005 132.077 80.6245 131.536 80.1394C130.996 79.6544 130.541 78.9797 130.174 78.1153C129.816 77.2507 129.629 76.143 129.61 74.7921C129.584 72.8442 129.811 71.4167 130.291 70.5094C130.782 69.6021 131.579 68.8896 132.682 68.372C133.785 67.8439 135.122 67.5693 136.693 67.5482C138.411 67.5251 139.875 67.783 141.087 68.3219C142.309 68.8606 143.12 69.5515 143.519 70.3945C143.928 71.2269 144.146 72.6537 144.173 74.6749L144.187 75.6802Z" fill="#14161F"/>
<path d="M160.278 68.2009L160.2 73.2903L156.273 73.23L155.961 93.5719L149.348 93.4703L149.66 73.1284L145.749 73.0684L145.827 67.979L160.278 68.2009Z" fill="#14161F"/>
<path d="M177.087 68.9448L176.304 85.9249C176.215 87.8499 176.09 89.2019 175.928 89.9807C175.767 90.7491 175.359 91.5324 174.703 92.3304C174.048 93.118 173.204 93.7029 172.169 94.085C171.145 94.4572 169.948 94.6117 168.578 94.5485C167.061 94.4785 165.733 94.1657 164.595 93.61C163.457 93.0542 162.619 92.3603 162.08 91.5282C161.542 90.6961 161.241 89.833 161.178 88.9389C161.114 88.0343 161.149 86.1487 161.281 83.2821L161.974 68.248L168.581 68.5526L167.703 87.6042C167.652 88.7132 167.676 89.4272 167.777 89.7464C167.889 90.0556 168.127 90.2186 168.494 90.2355C168.912 90.2548 169.187 90.0997 169.317 89.7702C169.459 89.4308 169.558 88.6281 169.617 87.3622L170.48 68.6402L177.087 68.9448Z" fill="#14161F"/>
<path d="M180.032 69.1253L184.964 69.5299C188.148 69.7911 190.286 70.1136 191.379 70.4975C192.482 70.8823 193.299 71.4326 193.829 72.1486C194.358 72.8646 194.662 73.6409 194.741 74.4775C194.82 75.3037 194.761 76.9172 194.564 79.318L193.836 88.1956C193.649 90.4712 193.415 91.9861 193.132 92.7406C192.861 93.4854 192.441 94.0552 191.873 94.45C191.305 94.8343 190.623 95.083 189.826 95.1962C189.029 95.299 187.843 95.2858 186.266 95.1565L177.952 94.4744L180.032 69.1253ZM186.268 74.0031L184.9 90.6781C185.85 90.756 186.45 90.6161 186.7 90.2583C186.951 89.8901 187.145 88.8605 187.284 87.1695L188.092 77.3211C188.186 76.1729 188.21 75.434 188.164 75.1044C188.117 74.7748 187.969 74.5262 187.72 74.3587C187.472 74.1807 186.988 74.0622 186.268 74.0031Z" fill="#14161F"/>
<path d="M204.596 71.4421L201.765 96.7183L195.192 95.9822L198.023 70.706L204.596 71.4421Z" fill="#14161F"/>
<path d="M220.37 88.663C220.002 91.1918 219.679 92.9757 219.4 94.0148C219.134 95.045 218.621 95.9493 217.862 96.7279C217.114 97.508 216.172 98.0536 215.037 98.3646C213.901 98.6756 212.624 98.7278 211.204 98.5212C209.856 98.3251 208.675 97.931 207.661 97.3389C206.658 96.7379 205.895 95.9494 205.37 94.9734C204.845 93.9974 204.596 92.9822 204.622 91.9277C204.649 90.8732 204.851 89.0504 205.228 86.4594L205.854 82.1531C206.222 79.6243 206.54 77.8448 206.806 76.8146C207.084 75.7756 207.598 74.866 208.346 74.0859C209.105 73.3073 210.052 72.7625 211.188 72.4515C212.323 72.1405 213.601 72.0883 215.02 72.2949C216.368 72.491 217.543 72.8895 218.545 73.4905C219.56 74.0827 220.33 74.8667 220.854 75.8427C221.379 76.8187 221.628 77.8339 221.602 78.8884C221.575 79.9429 221.373 81.7657 220.996 84.3567L220.37 88.663ZM215.028 79.44C215.199 78.2688 215.24 77.5128 215.152 77.1719C215.076 76.8222 214.836 76.6179 214.432 76.5591C214.09 76.5093 213.806 76.6056 213.58 76.8479C213.366 77.0813 213.165 77.8458 212.976 79.1413L211.266 90.8942C211.053 92.3555 210.979 93.2655 211.043 93.6241C211.118 93.9842 211.373 94.196 211.808 94.2593C212.254 94.3242 212.567 94.1687 212.749 93.793C212.931 93.4172 213.129 92.4883 213.345 91.0063L215.028 79.44Z" fill="#14161F"/>
</svg>
