<svg width="223" height="33" viewBox="0 0 223 33" fill="none" xmlns="http://www.w3.org/2000/svg">
    <path d="M131.99 1.03048C123.842 2.23605 118.063 5.64492 115.527 10.7582C114.405 13.0447 114.239 13.8761 114.239 16.5783C114.239 22.3567 117.149 26.5554 123.218 29.507C128.248 31.9597 131.117 32.3755 142.383 32.3755C152.235 32.3755 156.767 32.0013 162.67 30.671L165.455 30.0059V21.5253V13.0447H150.697H135.939V16.1625V19.2804L146.249 19.3635L156.517 19.4883L156.559 21.8994C156.559 24.6847 156.974 24.4353 150.822 25.1004C145.043 25.6824 136.23 25.5993 132.904 24.8926C126.918 23.6454 123.883 20.9017 123.883 16.7861C123.883 12.8784 126.045 10.5919 131.158 9.01222C135.648 7.64036 152.36 8.13922 163.792 9.96837L165.455 10.2594V6.43478C165.455 2.11134 165.954 2.56863 160.466 1.82034C151.653 0.656334 137.477 0.240618 131.99 1.03048Z" fill="white"/>
    <path d="M0 16.5366V32.1675H14.4669C30.9708 32.1259 33.7561 31.8349 38.4953 29.4654C44.1075 26.7216 46.768 22.4813 46.768 16.3287C46.7265 10.7581 43.7333 6.22684 38.4122 3.69097C33.7146 1.48768 32.1348 1.27982 15.5062 1.11353L0 0.905675V16.5366ZM28.2687 8.88742C34.8786 9.63571 37.6639 12.2131 37.3313 17.3265C37.1234 20.1117 36.2504 21.5668 33.8808 22.897C31.3866 24.2689 27.9361 24.6846 18.1668 24.6846H9.14575V16.5782V8.4717H16.9612C21.2431 8.4717 26.3148 8.67956 28.2687 8.88742Z" fill="white"/>
    <path d="M43.9413 1.57082C44.1076 1.86182 49.1378 8.88742 55.0825 17.1602L65.8911 32.1675H70.5056H75.1616L76.7413 29.9642C88.6308 13.4603 97.2777 1.36296 97.2777 1.19667C97.2777 1.07196 94.9081 0.988815 91.9981 0.988815L86.6769 1.03039L78.6536 12.2547L70.5887 23.479L69.2584 21.6915C68.5101 20.6938 64.8518 15.6636 61.152 10.4256L54.3758 0.988815H48.9715C44.5649 0.988815 43.6503 1.07196 43.9413 1.57082Z" fill="white"/>
    <path d="M100.894 1.23819C100.728 1.40448 100.603 8.43008 100.603 16.8691V32.209L105.301 32.0843L109.957 31.9596V16.5781V1.19662L105.55 1.07191C103.139 1.03033 101.06 1.11348 100.894 1.23819Z" fill="white"/>
    <path d="M178.758 15.7467C172.938 23.8948 167.908 30.8788 167.575 31.3361C167.035 32.1675 167.118 32.1675 172.439 32.1675H177.843L179.964 29.2575L182.084 26.3475H195.179H208.274L210.394 29.2575L212.514 32.1675H217.918C223.24 32.1675 223.323 32.1675 222.782 31.3361C222.45 30.9204 217.794 24.4352 212.431 16.9523C207.068 9.46942 202.288 2.81797 201.83 2.19439L200.999 0.988815H195.179H189.359L178.758 15.7467ZM199.419 13.876C201.498 16.8276 203.119 19.3219 202.953 19.4466C202.662 19.7792 187.696 19.7792 187.363 19.4466C187.072 19.114 194.638 8.51327 195.179 8.51327C195.428 8.51327 197.299 10.9244 199.419 13.876Z" fill="white"/>
</svg>
