<svg width="192" height="33" viewBox="0 0 192 33" fill="none" xmlns="http://www.w3.org/2000/svg">
    <g clip-path="url(#clip0_378_44)">
        <g clip-path="url(#clip1_378_44)">
            <g clip-path="url(#clip2_378_44)">
                <path d="M4.86004 1.51328L1.6895 26.2488C1.68425 26.3263 1.67768 26.3985 1.67768 26.4917C1.67768 28.6579 3.44741 30.4198 5.62281 30.4198H56.5314L59.7019 5.68554C59.7085 5.60545 59.7137 5.53324 59.7137 5.44266C59.7137 3.27645 57.944 1.5146 55.7686 1.5146L4.86004 1.51328ZM57.4346 31.4438H5.62281C2.88288 31.4438 0.652344 29.2224 0.652344 26.4917C0.652344 26.3683 0.658909 26.2724 0.669411 26.1569L3.95811 0.489258L55.7686 0.490571C58.5099 0.490571 60.7404 2.71192 60.7404 5.44266C60.7404 5.56344 60.7325 5.65928 60.7233 5.77218L57.4346 31.4438Z" fill="white"/>
                <path d="M8.41244 23.229C8.34285 23.5389 8.29297 23.8592 8.29297 24.19C8.29297 26.6083 10.2609 28.5684 12.6831 28.5684H23.4774L21.3178 22.0225H15.3771L16.1504 15.4727H9.47322L8.41244 23.229Z" fill="white"/>
                <path d="M17.5682 3.49902H11.1155L10.3633 8.99332H16.9184L17.5682 3.49902Z" fill="white"/>
                <path d="M49.1801 8.99219C48.0051 8.99219 47.023 9.52258 46.4112 10.4285L42.4504 17.0768L39.6264 8.99219H32.6197L27.8567 17.1175L25.3531 10.6425C24.7505 9.65255 23.6542 8.99219 22.4149 8.99219H5.46725L4.53906 15.4725H20.0202L23.6477 26.1315C24.0756 27.5192 25.4213 28.5682 26.9521 28.5682C28.2623 28.5682 29.5214 27.8343 30.0911 26.7525L35.6248 17.9616L38.2007 26.1315C38.6247 27.5258 40.2605 28.5682 41.7966 28.5682C42.9282 28.5682 44.2083 28.1704 44.8608 27.0558L50.9787 16.0147C51.1769 15.7245 51.5209 15.5591 51.9003 15.5591H54.312L58.0812 8.99219H49.1801Z" fill="white"/>
                <path d="M71.7008 13.5322H74.5668L75.2272 9.36648H72.3625L73.0413 5.08789H67.9776L67.2988 9.36648H65.6578L64.9961 13.5322H66.6372L65.0381 23.6136H70.1018L71.7008 13.5322Z" fill="white"/>
                <path d="M79.8303 14.4212C80.3712 12.9495 81.7182 12.171 83.1925 12.171C84.5553 12.171 85.6659 13.0598 85.7014 14.4212H79.8303ZM90.0233 16.8106C90.7939 11.9491 88.4137 8.89404 83.4616 8.89404C78.8168 8.89404 75.1066 11.7548 74.3544 16.5047C73.5732 21.4213 76.6834 24.0864 81.4136 24.0864C84.6682 24.0864 88.1092 22.5596 89.4496 19.1987H84.5815C83.8752 20.1426 83.0389 20.5036 81.9545 20.5036C79.8671 20.5036 78.9586 19.393 79.2841 17.337H89.9406L90.0233 16.8106Z" fill="white"/>
                <path d="M103.453 9.7277C102.539 9.17237 101.415 8.89404 100.247 8.89404C95.7677 8.89404 91.7596 12.0607 91.0336 16.6425C90.3509 20.9487 93.3849 24.0864 97.6136 24.0864C98.8385 24.0864 100.102 23.837 101.302 23.2816L101.981 19.0044C101.216 19.6148 100.185 19.9759 99.2954 19.9759C97.2093 19.9759 95.9647 18.5317 96.2903 16.4758C96.6027 14.5052 98.3711 13.0046 100.318 13.0046C101.292 13.0046 102.111 13.4484 102.774 14.005L103.453 9.7277Z" fill="white"/>
                <path d="M111.418 9.36667H106.354L104.094 23.6151H109.158L110.329 16.2264C110.611 14.4488 111.439 12.9219 113.497 12.9219C116.001 12.9219 115.399 15.31 115.183 16.6714L114.081 23.6151H119.145L120.542 14.8098C121.097 11.311 119.95 8.89404 116.11 8.89404C114.135 8.89404 112.624 9.47695 111.183 11.1994H111.127L111.418 9.36667Z" fill="white"/>
                <path d="M129.512 9.36664H124.448L122.187 23.6151H127.251L129.512 9.36664ZM128.297 1.06152C126.739 1.06152 125.257 2.33893 125.01 3.89466C124.763 5.4504 125.841 6.7278 127.398 6.7278C128.956 6.7278 130.438 5.4504 130.685 3.89466C130.932 2.33893 129.856 1.06152 128.297 1.06152Z" fill="white"/>
                <path d="M136.08 9.3667H130.461L135.657 23.6151H138.939L143.71 15.8089L146.005 23.6151H149.288L159.005 9.3667H153.412L148.599 17.0876L146.235 9.3667H143.231L138.417 17.0876L136.08 9.3667Z" fill="white"/>
                <path d="M163.245 14.4212C163.785 12.9495 165.132 12.171 166.606 12.171C167.97 12.171 169.081 13.0598 169.115 14.4212H163.245ZM173.438 16.8106C174.209 11.9491 171.828 8.89404 166.876 8.89404C162.23 8.89404 158.521 11.7548 157.768 16.5047C156.988 21.4213 160.098 24.0864 164.827 24.0864C168.082 24.0864 171.524 22.5596 172.863 19.1987H167.996C167.289 20.1426 166.452 20.5036 165.368 20.5036C163.282 20.5036 162.373 19.393 162.699 17.337H173.354L173.438 16.8106Z" fill="white"/>
                <path d="M183.091 0.561523H178.028L174.371 23.614H179.434L183.091 0.561523Z" fill="white"/>
                <mask id="mask0_378_44" style="mask-type:luminance" maskUnits="userSpaceOnUse" x="182" y="0" width="10" height="24">
                    <path d="M182.144 0.48877H191.195V23.6791H182.144V0.48877Z" fill="white"/>
                </mask>
                <g mask="url(#mask0_378_44)">
                    <path d="M191.196 0.561523H186.133L182.476 23.614H187.539L191.196 0.561523Z" fill="white"/>
                </g>
                <mask id="mask1_378_44" style="mask-type:luminance" maskUnits="userSpaceOnUse" x="63" y="27" width="3" height="5">
                    <path d="M63.832 27.04H65.5125V31.9277H63.832V27.04Z" fill="white"/>
                </mask>
                <g mask="url(#mask1_378_44)">
                    <path d="M64.9474 27.3599V31.0346C64.9474 31.3181 64.9172 31.6661 64.5443 31.6661C64.3461 31.6661 64.1662 31.5256 64.0822 31.347L63.9023 31.4823C64.0179 31.7251 64.2516 31.8892 64.5246 31.8892C65.0721 31.8892 65.1863 31.5006 65.1863 31.0346V27.3599H64.9474Z" fill="white"/>
                </g>
                <path d="M67.7868 27.5826V27.3594H65.9961V31.1037H67.7868V30.8805H66.235V29.1672H67.7474V28.944H66.235V27.5826H67.7868Z" fill="white"/>
                <path d="M69.3523 27.5826H70.3225V27.3594H68.1445V27.5826H69.1147V31.1037H69.3523V27.5826Z" fill="white"/>
                <path d="M70.3515 29.6295H71.2955V29.4062H70.3515V29.6295Z" fill="white"/>
                <path d="M74.131 29.3012V29.5244H75.474C75.4596 29.9314 75.3401 30.2451 75.0158 30.5182C74.7086 30.7663 74.3148 30.9305 73.9117 30.9305C72.977 30.9305 72.2116 30.1546 72.2116 29.2316C72.2116 28.3323 72.9967 27.5328 73.9117 27.5328C74.5196 27.5328 75.0263 27.8413 75.3598 28.3376L75.5541 28.184C75.1603 27.647 74.6089 27.3096 73.9275 27.3096C72.8523 27.3096 71.9726 28.1735 71.9726 29.2461C71.9726 30.2793 72.8575 31.1536 73.8973 31.1536C74.4251 31.1536 74.962 30.9344 75.3204 30.5471C75.6539 30.1848 75.7235 29.7725 75.713 29.3012H74.131Z" fill="white"/>
                <path d="M76.9244 29.3313C77.5454 29.3405 77.9983 29.0031 77.9983 28.3519C77.9983 28.0355 77.8894 27.7362 77.6202 27.5471C77.3668 27.3633 77.0675 27.3594 76.7642 27.3594H76.2969V31.1037H76.5358V29.3313H76.6553L77.8789 31.1037H78.1532L76.9244 29.3313ZM76.5358 29.1068V27.5826H76.6894C76.9087 27.5826 77.1633 27.5734 77.3616 27.6666C77.6307 27.7861 77.7594 28.0644 77.7594 28.3427C77.7594 28.5659 77.6754 28.7891 77.4955 28.9335C77.3064 29.0976 77.0728 29.1068 76.8391 29.1068H76.5358Z" fill="white"/>
                <path d="M80.4456 27.3096C79.3862 27.3096 78.5 28.1787 78.5 29.2316C78.5 30.2845 79.3901 31.1536 80.4456 31.1536C81.4999 31.1536 82.39 30.2845 82.39 29.2316C82.39 28.1787 81.4999 27.3096 80.4456 27.3096ZM80.4456 27.5328C81.3751 27.5328 82.151 28.3074 82.151 29.2316C82.151 30.1506 81.3751 30.9305 80.4456 30.9305C79.5096 30.9305 78.7389 30.1546 78.7389 29.2316C78.7389 28.3074 79.5096 27.5328 80.4456 27.5328Z" fill="white"/>
                <path d="M85.2416 29.6241C85.2416 29.9615 85.2416 30.3186 85.0473 30.568C84.8635 30.8056 84.4959 30.9304 84.2071 30.9304C83.9182 30.9304 83.5506 30.8056 83.3668 30.568C83.1725 30.3186 83.1725 29.9615 83.1725 29.6241V27.3594H82.9336V29.6937C82.9336 30.0757 82.9336 30.4039 83.187 30.7164C83.4417 31.0039 83.8289 31.1536 84.2071 31.1536C84.5852 31.1536 84.9738 31.0039 85.2271 30.7164C85.4805 30.4039 85.4805 30.0757 85.4805 29.6937V27.3594H85.2416V29.6241Z" fill="white"/>
                <path d="M87.088 27.5826H88.0569V27.3594H85.8789V27.5826H86.8491V31.1037H87.088V27.5826Z" fill="white"/>
                <path d="M88.4883 31.1037H88.7272V27.3594H88.4883V31.1037Z" fill="white"/>
                <path d="M92.9236 27.3595H92.6847V30.6272L89.5351 27.3096V31.1037H89.7741V27.8859L92.9236 31.2285V27.3595Z" fill="white"/>
                <path d="M95.6596 29.3012V29.5244H97.0027C96.9869 29.9314 96.8675 30.2451 96.5445 30.5182C96.236 30.7663 95.8434 30.9305 95.4404 30.9305C94.5056 30.9305 93.7389 30.1546 93.7389 29.2316C93.7389 28.3323 94.5253 27.5328 95.4404 27.5328C96.0482 27.5328 96.555 27.8413 96.8885 28.3376L97.0828 28.184C96.6889 27.647 96.1375 27.3096 95.4548 27.3096C94.3809 27.3096 93.5 28.1735 93.5 29.2461C93.5 30.2793 94.3862 31.1536 95.4259 31.1536C95.9537 31.1536 96.4894 30.9344 96.8478 30.5471C97.1812 30.1848 97.2508 29.7725 97.2416 29.3012H95.6596Z" fill="white"/>
                <mask id="mask2_378_44" style="mask-type:luminance" maskUnits="userSpaceOnUse" x="97" y="30" width="2" height="2">
                    <path d="M97.7851 30.4014H98.4573V31.9282H97.7851V30.4014Z" fill="white"/>
                </mask>
                <g mask="url(#mask2_378_44)">
                    <path d="M98.1903 30.7363L97.8515 31.8745L98.0012 31.9283L98.4148 30.8058L98.1903 30.7363Z" fill="white"/>
                </g>
                <path d="M102.843 29.3012V29.5244H104.186C104.171 29.9314 104.052 30.2451 103.729 30.5182C103.42 30.7663 103.026 30.9305 102.625 30.9305C101.69 30.9305 100.923 30.1546 100.923 29.2316C100.923 28.3323 101.708 27.5328 102.625 27.5328C103.231 27.5328 103.738 27.8413 104.071 28.3376L104.266 28.184C103.873 27.647 103.32 27.3096 102.639 27.3096C101.565 27.3096 100.684 28.1735 100.684 29.2461C100.684 30.2793 101.569 31.1536 102.609 31.1536C103.137 31.1536 103.674 30.9344 104.032 30.5471C104.366 30.1848 104.435 29.7725 104.425 29.3012H102.843Z" fill="white"/>
                <path d="M105.634 29.3313C106.256 29.3405 106.709 29.0031 106.709 28.3519C106.709 28.0355 106.599 27.7362 106.33 27.5471C106.076 27.3633 105.778 27.3594 105.475 27.3594H105.007V31.1037H105.245V29.3313H105.365L106.588 31.1037H106.863L105.634 29.3313ZM105.245 29.1068V27.5826H105.4C105.619 27.5826 105.873 27.5734 106.071 27.6666C106.34 27.7861 106.47 28.0644 106.47 28.3427C106.47 28.5659 106.385 28.7891 106.206 28.9335C106.017 29.0976 105.783 29.1068 105.55 29.1068H105.245Z" fill="white"/>
                <path d="M109.156 27.3096C108.097 27.3096 107.211 28.1787 107.211 29.2316C107.211 30.2845 108.102 31.1536 109.156 31.1536C110.21 31.1536 111.101 30.2845 111.101 29.2316C111.101 28.1787 110.21 27.3096 109.156 27.3096ZM109.156 27.5328C110.087 27.5328 110.863 28.3074 110.863 29.2316C110.863 30.1506 110.087 30.9305 109.156 30.9305C108.222 30.9305 107.451 30.1546 107.451 29.2316C107.451 28.3074 108.222 27.5328 109.156 27.5328Z" fill="white"/>
                <path d="M113.954 29.6241C113.954 29.9615 113.954 30.3186 113.759 30.568C113.575 30.8056 113.207 30.9304 112.918 30.9304C112.63 30.9304 112.261 30.8056 112.077 30.568C111.883 30.3186 111.883 29.9615 111.883 29.6241V27.3594H111.644V29.6937C111.644 30.0757 111.644 30.4039 111.899 30.7164C112.152 31.0039 112.54 31.1536 112.918 31.1536C113.297 31.1536 113.684 31.0039 113.938 30.7164C114.191 30.4039 114.191 30.0757 114.191 29.6937V27.3594H113.954V29.6241Z" fill="white"/>
                <path d="M115.799 27.5826H116.769V27.3594H114.59V27.5826H115.56V31.1037H115.799V27.5826Z" fill="white"/>
                <path d="M117.199 31.1037H117.438V27.3594H117.199V31.1037Z" fill="white"/>
                <path d="M121.63 27.3595H121.391V30.6272L118.242 27.3096V31.1037H118.481V27.8859L121.63 31.2285V27.3595Z" fill="white"/>
                <path d="M124.373 29.3012V29.5244H125.716C125.701 29.9314 125.582 30.2451 125.259 30.5182C124.951 30.7663 124.557 30.9305 124.155 30.9305C123.219 30.9305 122.453 30.1546 122.453 29.2316C122.453 28.3323 123.239 27.5328 124.155 27.5328C124.761 27.5328 125.268 27.8413 125.602 28.3376L125.796 28.184C125.402 27.647 124.851 27.3096 124.169 27.3096C123.094 27.3096 122.215 28.1735 122.215 29.2461C122.215 30.2793 123.099 31.1536 124.139 31.1536C124.667 31.1536 125.204 30.9344 125.562 30.5471C125.894 30.1848 125.964 29.7725 125.955 29.3012H124.373Z" fill="white"/>
                <path d="M130.096 29.8724L130.598 31.1039H130.842L129.274 27.2349L127.703 31.1039H127.947L128.449 29.8724H130.096ZM130.006 29.6492H128.539L129.274 27.8414L130.006 29.6492Z" fill="white"/>
                <path d="M134.653 27.3595H134.416V30.6272L131.266 27.3096V31.1037H131.505V27.8859L134.653 31.2285V27.3595Z" fill="white"/>
                <path d="M135.457 31.1037H136.133C136.689 31.1037 137.133 31.0039 137.545 30.6074C137.924 30.2451 138.123 29.7527 138.123 29.2355C138.123 28.6998 137.918 28.1983 137.526 27.8307C137.114 27.4487 136.68 27.3594 136.133 27.3594H135.457V31.1037ZM135.696 30.8805V27.5826H136.129C136.595 27.5826 136.984 27.6666 137.342 27.9896C137.695 28.3125 137.884 28.7589 137.884 29.2355C137.884 29.6832 137.706 30.1111 137.387 30.4289C137.028 30.7807 136.62 30.8805 136.129 30.8805H135.696Z" fill="white"/>
                <path d="M140.242 31.1037H140.918C141.475 31.1037 141.918 31.0039 142.331 30.6074C142.709 30.2451 142.908 29.7527 142.908 29.2355C142.908 28.6998 142.703 28.1983 142.311 27.8307C141.899 27.4487 141.465 27.3594 140.918 27.3594H140.242V31.1037ZM140.481 30.8805V27.5826H140.913C141.38 27.5826 141.769 27.6666 142.127 27.9896C142.48 28.3125 142.669 28.7589 142.669 29.2355C142.669 29.6832 142.489 30.1111 142.172 30.4289C141.813 30.7807 141.405 30.8805 140.913 30.8805H140.481Z" fill="white"/>
                <path d="M144.11 29.3313C144.733 29.3405 145.186 29.0031 145.186 28.3519C145.186 28.0355 145.075 27.7362 144.807 27.5471C144.554 27.3633 144.255 27.3594 143.951 27.3594H143.484V31.1037H143.723V29.3313H143.842L145.066 31.1037H145.339L144.11 29.3313ZM143.723 29.1068V27.5826H143.877C144.096 27.5826 144.349 27.5734 144.549 27.6666C144.817 27.7861 144.947 28.0644 144.947 28.3427C144.947 28.5659 144.861 28.7891 144.683 28.9335C144.494 29.0976 144.26 29.1068 144.026 29.1068H143.723Z" fill="white"/>
                <path d="M145.91 31.1037H146.149V27.3594H145.91V31.1037Z" fill="white"/>
                <path d="M147.196 27.3594H146.957V31.1037H148.15V30.8805H147.196V27.3594Z" fill="white"/>
                <path d="M148.821 27.3594H148.582V31.1037H149.776V30.8805H148.821V27.3594Z" fill="white"/>
                <path d="M150.207 31.1037H150.446V27.3594H150.207V31.1037Z" fill="white"/>
                <path d="M154.642 27.3595H154.403V30.6272L151.254 27.3096V31.1037H151.493V27.8859L154.642 31.2285V27.3595Z" fill="white"/>
                <path d="M157.383 29.3012V29.5244H158.726C158.71 29.9314 158.591 30.2451 158.268 30.5182C157.959 30.7663 157.567 30.9305 157.164 30.9305C156.229 30.9305 155.462 30.1546 155.462 29.2316C155.462 28.3323 156.249 27.5328 157.164 27.5328C157.772 27.5328 158.278 27.8413 158.612 28.3376L158.806 28.184C158.412 27.647 157.861 27.3096 157.179 27.3096C156.104 27.3096 155.223 28.1735 155.223 29.2461C155.223 30.2793 156.11 31.1536 157.149 31.1536C157.677 31.1536 158.213 30.9344 158.571 30.5471C158.905 30.1848 158.974 29.7725 158.965 29.3012H157.383Z" fill="white"/>
                <path d="M162.88 27.5826V27.3594H161.09V31.1037H162.88V30.8805H161.328V29.1672H162.841V28.944H161.328V27.5826H162.88Z" fill="white"/>
                <path d="M165.791 29.569H165.453L166.389 30.5379C166.095 30.7716 165.722 30.9305 165.344 30.9305C164.398 30.9305 163.622 30.1703 163.622 29.2316C163.622 28.3087 164.404 27.5328 165.333 27.5328C166.294 27.5328 167.035 28.3231 167.035 29.2618C167.035 29.7082 166.851 30.0705 166.553 30.3935L165.791 29.569ZM166.895 31.1037H167.218L166.726 30.572C167.074 30.1756 167.273 29.7423 167.273 29.2159C167.273 28.1695 166.383 27.3096 165.333 27.3096C164.27 27.3096 163.384 28.1695 163.384 29.2316C163.384 30.299 164.259 31.1536 165.329 31.1536C165.766 31.1536 166.219 30.9843 166.557 30.7073L166.895 31.1037Z" fill="white"/>
                <path d="M170.128 29.6241C170.128 29.9615 170.128 30.3186 169.934 30.568C169.75 30.8056 169.382 30.9304 169.093 30.9304C168.805 30.9304 168.437 30.8056 168.253 30.568C168.059 30.3186 168.059 29.9615 168.059 29.6241V27.3594H167.82V29.6937C167.82 30.0757 167.82 30.4039 168.073 30.7164C168.328 31.0039 168.715 31.1536 169.093 31.1536C169.472 31.1536 169.859 31.0039 170.114 30.7164C170.367 30.4039 170.367 30.0757 170.367 29.6937V27.3594H170.128V29.6241Z" fill="white"/>
                <path d="M171.137 31.1037H171.376V27.3594H171.137V31.1037Z" fill="white"/>
                <path d="M172.419 29.3261H172.842C173.136 29.3261 173.449 29.2867 173.678 29.0871C173.887 28.9138 173.991 28.6158 173.991 28.3467C173.991 28.0539 173.882 27.7716 173.653 27.5773C173.42 27.3791 173.136 27.3594 172.842 27.3594H172.18V31.1037H172.419V29.3261ZM172.419 29.1016V27.5826H172.813C173.042 27.5826 173.281 27.5878 173.47 27.7309C173.659 27.8701 173.753 28.1038 173.753 28.3375C173.753 28.5567 173.673 28.7497 173.509 28.8994C173.315 29.0727 173.097 29.1016 172.853 29.1016H172.419Z" fill="white"/>
                <path d="M178.315 31.1039H178.543L177.737 27.2349L176.355 30.6417L174.978 27.2349L174.172 31.1039H174.4L175.041 28.0042H175.051L176.355 31.2286L177.664 28.0042H177.673L178.315 31.1039Z" fill="white"/>
                <path d="M180.783 27.5826V27.3594H178.992V31.1037H180.783V30.8805H179.231V29.1672H180.743V28.944H179.231V27.5826H180.783Z" fill="white"/>
                <path d="M184.9 27.3595H184.662V30.6272L181.512 27.3096V31.1037H181.751V27.8859L184.9 31.2285V27.3595Z" fill="white"/>
                <path d="M186.541 27.5826H187.511V27.3594H185.332V27.5826H186.302V31.1037H186.541V27.5826Z" fill="white"/>
            </g>
        </g>
    </g>
    <defs>
        <clipPath id="clip0_378_44">
            <rect width="191" height="32" fill="white" transform="translate(0.195312 0.0761719)"/>
        </clipPath>
        <clipPath id="clip1_378_44">
            <rect width="191" height="32" fill="white" transform="translate(0.195312 0.0761719)"/>
        </clipPath>
        <clipPath id="clip2_378_44">
            <rect width="191" height="32" fill="white" transform="translate(0.195312 0.0761719)"/>
        </clipPath>
    </defs>
</svg>
