<svg width="183" height="85" viewBox="0 0 183 85" fill="none" xmlns="http://www.w3.org/2000/svg">
<path d="M19.4595 1.51453C14.4655 2.56166 10.2367 4.69621 7.21613 7.71678C4.35665 10.5763 3.26924 12.5094 2.66512 15.7314C1.21524 23.6654 7.61887 31.3176 17.8888 33.9757C19.4595 34.3784 20.7081 34.902 20.6275 35.0631C20.5872 35.2645 19.1776 35.788 17.5264 36.1908C10.5589 37.9226 4.63857 42.2319 2.14156 47.3468C0.973598 49.723 0.8125 50.4076 0.8125 53.4685C0.8125 56.4891 0.973598 57.214 2.10128 59.6708C6.89393 69.6991 22.6815 74.7334 35.7304 70.3837C40.4828 68.813 42.4562 67.6451 45.6379 64.5842C53.1692 57.3751 52.4846 47.7898 43.9464 40.9029C41.2883 38.7683 36.6567 36.6741 33.1528 35.9894C31.7432 35.7478 30.8169 35.345 30.8169 35.0631C30.8169 34.7812 31.1391 34.5395 31.5419 34.5395C31.9043 34.5395 33.757 34.016 35.5693 33.3716C41.1272 31.4384 45.4768 28.0151 47.6516 23.8668C48.6182 22.0947 48.739 21.3698 48.739 18.027C48.739 14.4426 48.6585 14.0399 47.3697 11.6637C44.3894 6.14608 37.9052 2.27974 29.8503 1.15205C25.6618 0.547935 23.6078 0.628487 19.4595 1.51453ZM27.5144 3.68934C29.9712 4.97813 31.6224 7.83761 32.589 12.5094C34.2403 20.4032 32.2668 29.8274 28.4407 32.405C22.8426 36.1908 17.8486 28.297 18.4527 16.6577C18.6943 11.4623 19.8623 7.67651 21.876 5.46142C24.0106 3.1255 25.5007 2.6422 27.5144 3.68934ZM28.7227 37.5198C33.9986 40.2988 36.8581 50.0855 35.0055 59.0264C33.1931 67.8867 27.6755 72.2364 22.2385 69.0547C19.9831 67.7256 18.1708 65.0273 17.0028 61.322C15.714 57.2543 15.714 49.6424 17.0028 45.5747C18.0499 42.2722 20.3053 38.9697 22.3593 37.8018C24.0106 36.8352 27.152 36.6741 28.7227 37.5198Z" fill="white"/>
<path d="M151.439 13.4356C142.86 15.0063 137.343 20.3225 136.819 27.3303C136.618 30.3911 137.142 32.4049 138.632 34.1769C140.001 35.7879 141.572 36.5531 143.626 36.5531C145.035 36.5531 145.559 36.3115 146.848 34.9824C148.257 33.6131 148.418 33.2104 148.418 31.4383C148.418 28.3372 147.089 26.8067 143.706 26.0818C142.538 25.8401 141.169 25.2763 140.686 24.8736C139.84 24.1889 139.8 24.0681 140.363 23.0209C141.29 21.2489 144.512 18.1477 146.244 17.3825C147.13 17.02 148.902 16.6978 150.231 16.6978C159.373 16.5368 165.817 28.0552 161.789 37.3586C159.212 43.3192 150.593 50.7297 140.001 56.0459C137.142 57.4958 136.255 58.3819 136.98 59.1068C137.222 59.3484 146.848 59.5095 159.413 59.5498C176.49 59.5901 181.564 59.5095 182.047 59.1068C182.934 58.3819 182.974 38.5668 182.047 38.5668C181.443 38.5668 181.121 39.5737 180.195 44.0039C179.349 48.1522 180.195 47.83 170.328 47.7494C165.575 47.7091 161.588 47.548 161.508 47.3869C161.387 47.2258 163.521 45.776 166.179 44.165C171.939 40.7014 174.798 38.2447 176.409 35.2643C177.496 33.3312 177.617 32.7673 177.617 29.5051C177.617 26.3234 177.456 25.5985 176.449 23.5042C172.583 15.6507 162.071 11.4219 151.439 13.4356Z" fill="white"/>
<path d="M62.231 14.1203C61.7074 14.4022 60.8214 15.248 60.3381 15.9729C59.4118 17.3423 59.4118 17.3825 59.4118 32.1632C59.4118 41.9902 59.5326 47.0245 59.8145 47.0245C60.0561 47.0245 60.9422 46.5815 61.7477 46.0579C64.4461 44.3664 67.0236 43.6817 70.6886 43.6414C73.9508 43.6012 74.2327 43.6817 76.2465 44.9705C83.1334 49.4007 86.5567 58.8249 84.5833 68.088C83.3347 73.9278 79.0254 79.3648 74.5147 80.6536C71.2927 81.6202 66.9833 81.3383 64.6072 80.0092C62.2712 78.7204 62.1101 77.6733 63.9628 75.9415C65.7751 74.2097 66.2584 73.2431 66.2584 71.1086C66.2584 67.5242 63.7211 65.3091 59.9353 65.6313C55.0218 66.034 53.29 70.8267 56.1093 76.1429C58.9285 81.4188 65.2515 84.1978 74.5147 84.238C80.1933 84.238 83.0528 83.6339 87.8052 81.2577C95.8198 77.3511 100.129 70.6656 100.21 62.1274C100.25 53.2267 95.4171 45.6552 87.1205 41.7888C79.3073 38.1238 70.9302 38.0433 62.9559 41.5472C62.2712 41.8694 62.231 41.3861 62.231 34.7811C62.231 28.2163 62.3115 27.6122 63.0365 26.8873C63.8017 26.1221 64.3655 26.0818 77.1325 26.0818C91.9132 26.0818 92.5979 26.0013 94.0477 23.5848C94.7324 22.4571 94.8532 21.5711 94.8532 17.9061V13.5967H79.0657C67.225 13.5967 62.9962 13.7176 62.231 14.1203Z" fill="white"/>
<path d="M108.708 14.201C108.547 14.5232 108.667 15.0467 108.909 15.3689C109.231 15.7717 109.312 21.8531 109.231 37.399C109.151 49.2397 109.03 59.268 108.949 59.711C108.748 60.4762 108.99 60.5165 116.722 60.6373C123.69 60.7179 124.697 60.6373 124.938 60.1138C125.059 59.7513 124.978 59.268 124.697 58.9861C124.052 58.3417 124.052 15.973 124.697 15.3286C124.978 15.0467 125.059 14.5634 124.938 14.2412C124.576 13.3149 109.03 13.2747 108.708 14.201Z" fill="white"/>
<path d="M114.991 72.0751C114.829 72.5986 113.742 75.0956 112.614 77.6329C111.366 80.5327 110.762 82.345 111.044 82.5061C111.809 82.9894 112.896 82.3853 113.38 81.2174C113.863 80.1299 114.024 80.0494 116.239 80.0494C118.454 80.0494 118.655 80.1299 119.139 81.1368C119.38 81.7812 119.783 82.3853 119.944 82.5061C120.508 82.9089 121.918 82.4256 121.716 81.902C121.596 81.6604 120.548 79.1231 119.38 76.3039C117.488 71.8737 117.085 71.189 116.279 71.189C115.715 71.189 115.232 71.5112 114.991 72.0751ZM117.407 77.4718C117.407 77.8343 116.964 78.0357 116.199 78.0357C114.829 78.0357 114.749 77.794 115.635 75.6998L116.239 74.2096L116.843 75.5789C117.165 76.3039 117.407 77.1899 117.407 77.4718Z" fill="white"/>
<path d="M128.12 71.8333C127.999 72.1958 127.878 74.6123 127.878 77.2301C127.878 81.4187 127.959 82.063 128.603 82.3852C130.094 83.1505 130.295 82.5866 130.295 77.794V73.2027H132.51H134.725V77.8342V82.4658H135.732H136.739V76.8274V71.189H132.55C129.127 71.189 128.321 71.3098 128.12 71.8333Z" fill="white"/>
<path d="M146.928 72.6791C146.606 73.5249 145.518 76.0219 144.552 78.1967C142.78 82.2241 142.739 83.0296 144.391 82.5866C144.834 82.4658 145.317 81.8617 145.559 81.2173C145.961 80.0896 146.082 80.0493 148.418 80.0493C150.794 80.0493 150.915 80.0896 151.358 81.2575C151.721 82.2241 152.043 82.4658 152.969 82.4658C153.613 82.4658 154.056 82.3047 153.976 82.1033C153.936 81.8617 152.848 79.3646 151.64 76.4649C149.707 71.8736 149.304 71.1889 148.499 71.1889C147.814 71.1889 147.411 71.5514 146.928 72.6791ZM149.586 77.512C149.626 77.8342 149.143 78.0356 148.418 78.0356C147.049 78.0356 146.968 77.7537 147.854 75.6997L148.499 74.2095L149.022 75.6191C149.344 76.3843 149.586 77.2704 149.586 77.512Z" fill="white"/>
<path d="M160.42 71.4309C160.218 71.592 160.098 74.1293 160.098 77.0693C160.098 82.5869 160.218 82.9493 161.829 82.5466C162.393 82.4258 162.514 81.9022 162.514 80.0093V77.6331H164.125C167.186 77.6331 168.797 74.6125 166.985 72.3572C166.38 71.592 165.776 71.3906 163.481 71.2698C161.95 71.1892 160.581 71.2698 160.42 71.4309ZM165.494 74.089C166.018 74.975 165.575 75.4583 163.843 75.8208C162.554 76.0624 162.514 76.0624 162.514 74.6125C162.514 73.2029 162.554 73.1627 163.763 73.2835C164.488 73.364 165.253 73.7265 165.494 74.089Z" fill="white"/>
<path d="M173.388 72.196C173.388 73.1223 173.55 73.2029 175.201 73.2029H177.013V77.8344V82.466H178.02H179.027V77.8747V73.2431L180.759 73.1223C182.128 73.0418 182.45 72.8404 182.45 72.196C182.45 71.4308 182.128 71.3905 177.939 71.2697L173.388 71.1489V72.196Z" fill="white"/>
</svg>
